# xmcd CD database file
#
# Track frame offsets:
#	150
#	19255
#	38342
#	57410
#
# Disc length: 1017 seconds
#
# Revision: 1
# Processed by: cddbd v1.5.2PL0 Copyright (c) Steve Scherf et al.
# Submitted via: CDex 1.70beta3
#
DISCID=2803f704
DTITLE=高山　厳 - 心凍らせて
DYEAR=1992
DGENRE=Other
TTITLE0=心凍らせて
TTITLE1=握りこぶしのブルース
TTITLE2=心凍らせて<オリジナルカラオケ>
TTITLE3=握りこぶしのブルース<オリジナルカラオケ>
EXTD=YEAR: 1992
EXTT0=
EXTT1=
EXTT2=
EXTT3=
PLAYORDER=
